<svg fill="none" xmlns="http://www.w3.org/2000/svg" viewBox="0 0 239 1196"><path fill="#fff" d="M223 49h-1v1099h1z"/><path fill-rule="evenodd" clip-rule="evenodd" d="M199 1v16h-9V1h9zm1 17h-11V0h11v18z" fill="#fff"/><path d="M195 17V1h-1v16h1z" fill="#fff"/><path fill-rule="evenodd" clip-rule="evenodd" d="M222 39h16v9h-16v-9zm17-1v11h-18V38h18z" fill="#fff"/><path d="M238 43h-16v1h16v-1z" fill="#fff"/><path d="M213 17c5 0 9 4 9 9h1c0-6-4-10-10-10v1z" fill="#fff"/><path d="M213 2c13 0 24 11 24 24h1c0-14-11-25-25-25v1z" fill="#fff"/><path fill="#fff" d="M189 1H0v1h189z"/><path fill="#fff" d="M189 16H0v1h189z"/><path fill="#fff" d="M213 1h-13v1h13z"/><path fill="#fff" d="M213 16h-13v1h13z"/><path fill="#fff" d="M223 26h-1v12h1z"/><path fill="#fff" d="M238 26h-1v12h1z"/><path fill="#fff" d="M238 49h-1v1099h1z"/><path fill-rule="evenodd" clip-rule="evenodd" d="M238 1149h-16v9h16v-9zm-17-1v11h18v-11h-18z" fill="#fff"/><path d="M222 1153h16v1h-16v-1z" fill="#fff"/><path fill-rule="evenodd" clip-rule="evenodd" d="M190 1179v16h9v-16h-9zm-1 17h11v-18h-11v18z" fill="#fff"/><path d="M194 1195v-16h1v16h-1z" fill="#fff"/><path d="M213 1179c5 0 9-4 9-9h1c0 6-4 10-10 10v-1z" fill="#fff"/><path d="M213 1194c13 0 24-11 24-24h1c0 14-11 25-25 25v-1z" fill="#fff"/><path fill="#fff" d="M222 1159h1v11h-1z"/><path fill="#fff" d="M237 1159h1v11h-1z"/><path fill="#fff" d="M200 1179h13v1h-13z"/><path fill="#fff" d="M200 1194h13v1h-13z"/><path fill="#fff" d="M0 1179h189v1H0z"/><path fill="#fff" d="M0 1194h189v1H0z"/></svg>