<svg fill="none" xmlns="http://www.w3.org/2000/svg" viewBox="0 0 3456 1196"><path fill="#fff" d="M1735 1147h1V48h-1z"/><path fill-rule="evenodd" clip-rule="evenodd" d="M2608 1195v-16h9v16h-9zm-1-17h11v18h-11v-18z" fill="#fff"/><path d="M2612 1179v16h1v-16h-1z" fill="#fff"/><path fill-rule="evenodd" clip-rule="evenodd" d="M1759 1195v-16h9v16h-9zm-1-17h11v18h-11v-18z" fill="#fff"/><path d="M1763 1179v16h1v-16h-1z" fill="#fff"/><path fill-rule="evenodd" clip-rule="evenodd" d="M1736 1157h-16v-9h16v9zm-17 1v-11h18v11h-18z" fill="#fff"/><path d="M1720 1153h16v-1h-16v1z" fill="#fff"/><path d="M1745 1179c-5 0-9-4-9-9h-1c0 6 4 10 10 10v-1z" fill="#fff"/><path d="M1745 1194c-13 0-24-11-24-24h-1c0 14 11 25 25 25v-1z" fill="#fff"/><path fill="#fff" d="M1769 1195h838v-1h-838z"/><path fill="#fff" d="M2618 1195h838v-1h-838z"/><path fill="#fff" d="M1769 1180h838v-1h-838z"/><path fill="#fff" d="M2618 1180h838v-1h-838z"/><path fill="#fff" d="M1745 1195h13v-1h-13z"/><path fill="#fff" d="M1745 1180h13v-1h-13z"/><path fill="#fff" d="M1735 1170h1v-12h-1z"/><path fill="#fff" d="M1720 1170h1v-12h-1z"/><path fill="#fff" d="M1720 1147h1V48h-1z"/><path fill-rule="evenodd" clip-rule="evenodd" d="M1736 47h-16v-9h16v9zm-17 1V37h18v11h-18z" fill="#fff"/><path d="M1720 43h16v-1h-16v1z" fill="#fff"/><path fill-rule="evenodd" clip-rule="evenodd" d="M1688 17V1h9v16h-9zm-1-17h11v18h-11V0z" fill="#fff"/><path d="M1692 1v16h1V1h-1z" fill="#fff"/><path fill-rule="evenodd" clip-rule="evenodd" d="M839 17V1h9v16h-9zm-1-17h11v18h-11V0z" fill="#fff"/><path d="M843 1v16h1V1h-1z" fill="#fff"/><path d="M1711 17c5 0 9 4 9 9h1c0-6-4-10-10-10v1z" fill="#fff"/><path d="M1711 2c13 0 24 11 24 24h1c0-14-11-25-25-25v1z" fill="#fff"/><path fill="#fff" d="M1720 37h1V26h-1z"/><path fill="#fff" d="M1735 37h1V26h-1z"/><path fill="#fff" d="M1698 17h13v-1h-13z"/><path fill="#fff" d="M1698 2h13V1h-13z"/><path fill="#fff" d="M849 17h838v-1H849z"/><path fill="#fff" d="M0 17h838v-1H0z"/><path fill="#fff" d="M849 2h838V1H849z"/><path fill="#fff" d="M0 2h838V1H0z"/></svg>