<svg fill="none" xmlns="http://www.w3.org/2000/svg" viewBox="0 0 3456 1196"><path fill="#fff" d="M1735 49h1v1099h-1z"/><path fill-rule="evenodd" clip-rule="evenodd" d="M2608 1v16h9V1h-9zm-1 17h11V0h-11v18z" fill="#fff"/><path d="M2612 17V1h1v16h-1z" fill="#fff"/><path fill-rule="evenodd" clip-rule="evenodd" d="M1759 1v16h9V1h-9zm-1 17h11V0h-11v18z" fill="#fff"/><path d="M1763 17V1h1v16h-1z" fill="#fff"/><path fill-rule="evenodd" clip-rule="evenodd" d="M1736 39h-16v9h16v-9zm-17-1v11h18V38h-18z" fill="#fff"/><path d="M1720 43h16v1h-16v-1z" fill="#fff"/><path d="M1745 17c-5 0-9 4-9 9h-1c0-6 4-10 10-10v1z" fill="#fff"/><path d="M1745 2c-13 0-24 11-24 24h-1c0-14 11-25 25-25v1z" fill="#fff"/><path fill="#fff" d="M1769 1h838v1h-838z"/><path fill="#fff" d="M2618 1h838v1h-838z"/><path fill="#fff" d="M1769 16h838v1h-838z"/><path fill="#fff" d="M2618 16h838v1h-838z"/><path fill="#fff" d="M1745 1h13v1h-13z"/><path fill="#fff" d="M1745 16h13v1h-13z"/><path fill="#fff" d="M1735 26h1v12h-1z"/><path fill="#fff" d="M1720 26h1v12h-1z"/><path fill="#fff" d="M1720 49h1v1099h-1z"/><path fill-rule="evenodd" clip-rule="evenodd" d="M1736 1149h-16v9h16v-9zm-17-1v11h18v-11h-18z" fill="#fff"/><path d="M1720 1153h16v1h-16v-1z" fill="#fff"/><path fill-rule="evenodd" clip-rule="evenodd" d="M1688 1179v16h9v-16h-9zm-1 17h11v-18h-11v18z" fill="#fff"/><path d="M1692 1195v-16h1v16h-1z" fill="#fff"/><path fill-rule="evenodd" clip-rule="evenodd" d="M839 1179v16h9v-16h-9zm-1 17h11v-18h-11v18z" fill="#fff"/><path d="M843 1195v-16h1v16h-1z" fill="#fff"/><path d="M1711 1179c5 0 9-4 9-9h1c0 6-4 10-10 10v-1z" fill="#fff"/><path d="M1711 1194c13 0 24-11 24-24h1c0 14-11 25-25 25v-1z" fill="#fff"/><path fill="#fff" d="M1720 1159h1v11h-1z"/><path fill="#fff" d="M1735 1159h1v11h-1z"/><path fill="#fff" d="M1698 1179h13v1h-13z"/><path fill="#fff" d="M1698 1194h13v1h-13z"/><path fill="#fff" d="M849 1179h838v1H849z"/><path fill="#fff" d="M0 1179h838v1H0z"/><path fill="#fff" d="M849 1194h838v1H849z"/><path fill="#fff" d="M0 1194h838v1H0z"/></svg>