<svg fill="none" xmlns="http://www.w3.org/2000/svg" viewBox="0 0 239 1196"><path fill="#fff" d="M16 49h1v1099h-1z"/><path fill-rule="evenodd" clip-rule="evenodd" d="M40 1v16h9V1h-9zm-1 17h11V0H39v18z" fill="#fff"/><path d="M44 17V1h1v16h-1z" fill="#fff"/><path fill-rule="evenodd" clip-rule="evenodd" d="M17 39H1v9h16v-9zM0 38v11h18V38H0z" fill="#fff"/><path d="M1 43h16v1H1v-1z" fill="#fff"/><path d="M26 17c-5 0-9 4-9 9h-1c0-6 4-10 10-10v1z" fill="#fff"/><path d="M26 2C13 2 2 13 2 26H1C1 12 12 1 26 1v1z" fill="#fff"/><path fill="#fff" d="M50 1h189v1H50z"/><path fill="#fff" d="M50 16h189v1H50z"/><path fill="#fff" d="M26 1h13v1H26z"/><path fill="#fff" d="M26 16h13v1H26z"/><path fill="#fff" d="M16 26h1v12h-1z"/><path fill="#fff" d="M1 26h1v12H1z"/><path fill="#fff" d="M1 49h1v1099H1z"/><path fill-rule="evenodd" clip-rule="evenodd" d="M1 1149h16v9H1v-9zm17-1v11H0v-11h18z" fill="#fff"/><path d="M17 1153H1v1h16v-1z" fill="#fff"/><path fill-rule="evenodd" clip-rule="evenodd" d="M49 1179v16h-9v-16h9zm1 17H39v-18h11v18z" fill="#fff"/><path d="M45 1195v-16h-1v16h1z" fill="#fff"/><path d="M26 1179c-5 0-9-4-9-9h-1c0 6 4 10 10 10v-1z" fill="#fff"/><path d="M26 1194c-13 0-24-11-24-24H1c0 14 11 25 25 25v-1z" fill="#fff"/><path fill="#fff" d="M17 1159h-1v11h1z"/><path fill="#fff" d="M2 1159H1v11h1z"/><path fill="#fff" d="M39 1179H26v1h13z"/><path fill="#fff" d="M39 1194H26v1h13z"/><path fill="#fff" d="M239 1179H50v1h189z"/><path fill="#fff" d="M239 1194H50v1h189z"/></svg>