<svg width="3766" height="2467" viewBox="0 0 3766 2467" fill="none" xmlns="http://www.w3.org/2000/svg">
<path fill-rule="evenodd" clip-rule="evenodd" d="M1353 195L1353 179L1362 179L1362 195L1353 195ZM1352 178L1363 178L1363 196L1352 196L1352 178Z" fill="white"/>
<path d="M1357 179L1357 195L1358 195L1358 179L1357 179Z" fill="white"/>
<path fill-rule="evenodd" clip-rule="evenodd" d="M1330 157H1314V148H1330V157ZM1313 158V147H1331V158H1313Z" fill="white"/>
<path d="M1314 153H1330V152H1314V153Z" fill="white"/>
<path fill-rule="evenodd" clip-rule="evenodd" d="M2848 2450L2848 2466L2839 2466L2839 2450L2848 2450ZM2849 2467L2838 2467L2838 2449L2849 2449L2849 2467Z" fill="white"/>
<path d="M2844 2466L2844 2450L2843 2450L2843 2466L2844 2466Z" fill="white"/>
<path fill-rule="evenodd" clip-rule="evenodd" d="M929 2450L929 2466L920 2466L920 2450L929 2450ZM930 2467L919 2467L919 2449L930 2449L930 2467Z" fill="white"/>
<path d="M925 2466L925 2450L924 2450L924 2466L925 2466Z" fill="white"/>
<path fill-rule="evenodd" clip-rule="evenodd" d="M1859 2450L1859 2466L1850 2466L1850 2450L1859 2450ZM1860 2467L1849 2467L1849 2449L1860 2449L1860 2467Z" fill="white"/>
<path d="M1855 2466L1855 2450L1854 2450L1854 2466L1855 2466Z" fill="white"/>
<path fill-rule="evenodd" clip-rule="evenodd" d="M1877 2422L1893 2422L1893 2431L1877 2431L1877 2422ZM1894 2421L1894 2432L1876 2432L1876 2421L1894 2421Z" fill="white"/>
<path d="M1893 2426L1877 2426L1877 2427L1893 2427L1893 2426Z" fill="white"/>
<path fill-rule="evenodd" clip-rule="evenodd" d="M1911 2466L1911 2450L1920 2450L1920 2466L1911 2466ZM1910 2449L1921 2449L1921 2467L1910 2467L1910 2449Z" fill="white"/>
<path d="M1915 2450L1915 2466L1916 2466L1916 2450L1915 2450Z" fill="white"/>
<path d="M1339 179C1334.03 179 1330 174.971 1330 170L1329 170C1329 175.523 1333.48 180 1339 180L1339 179Z" fill="white"/>
<path d="M1339 194C1325.72 194 1315 183.276 1315 170L1314 170C1314 183.807 1325.19 195 1339 195L1339 194Z" fill="white"/>
<rect width="13" height="1" transform="matrix(1 0 0 -1 1339 195)" fill="white"/>
<rect width="13" height="1" transform="matrix(1 0 0 -1 1339 180)" fill="white"/>
<rect width="1" height="12" transform="matrix(1 0 0 -1 1329 170)" fill="white"/>
<rect width="0.999999" height="18" transform="matrix(-4.37114e-08 1 1 4.37114e-08 1892 2450)" fill="white"/>
<rect width="0.999999" height="18" transform="matrix(-4.37114e-08 1 1 4.37114e-08 1860 2450)" fill="white"/>
<rect width="0.999998" height="50" transform="matrix(-4.37114e-08 1 1 4.37114e-08 1860 2465)" fill="white"/>
<rect width="0.999961" height="917" transform="matrix(-4.37114e-08 1 1 4.37114e-08 1921 2465)" fill="white"/>
<rect width="0.999961" height="917" transform="matrix(-4.37114e-08 1 1 4.37114e-08 2849 2465)" fill="white"/>
<rect width="0.99996" height="919" transform="matrix(-4.38067e-08 1 1 4.36163e-08 930 2465)" fill="white"/>
<rect width="0.99996" height="919" transform="matrix(-4.38067e-08 1 1 4.36163e-08 0 2465)" fill="white"/>
<rect width="0.999961" height="917" transform="matrix(-4.37114e-08 1 1 4.37114e-08 1921 2450)" fill="white"/>
<rect width="0.999961" height="917" transform="matrix(-4.37114e-08 1 1 4.37114e-08 2849 2450)" fill="white"/>
<rect width="0.99996" height="919" transform="matrix(-4.38067e-08 1 1 4.36163e-08 930 2450)" fill="white"/>
<rect width="0.99996" height="919" transform="matrix(-4.38067e-08 1 1 4.36163e-08 0 2450)" fill="white"/>
<rect width="1" height="148" transform="matrix(1 0 0 -1 1329 148)" fill="white"/>
<rect width="1" height="12" transform="matrix(1 0 0 -1 1314 170)" fill="white"/>
<rect width="1" height="19" transform="matrix(1 0 0 -1 1877 2451)" fill="white"/>
<rect width="1" height="19" transform="matrix(1 0 0 -1 1892 2451)" fill="white"/>
<rect width="1" height="148" transform="matrix(1 0 0 -1 1314 148)" fill="white"/>
<rect width="1" height="2194" transform="matrix(1 0 0 -1 1892 2421)" fill="white"/>
<rect width="1" height="2194" transform="matrix(1 0 0 -1 1877 2421)" fill="white"/>
<path fill-rule="evenodd" clip-rule="evenodd" d="M1854 179L1854 195L1845 195L1845 179L1854 179ZM1855 196L1844 196L1844 178L1855 178L1855 196Z" fill="white"/>
<path d="M1850 195L1850 179L1849 179L1849 195L1850 195Z" fill="white"/>
<path fill-rule="evenodd" clip-rule="evenodd" d="M1877 217H1893V226H1877V217ZM1894 216V227H1876V216H1894Z" fill="white"/>
<path d="M1893 221H1877V222H1893V221Z" fill="white"/>
<path d="M1868 195C1872.97 195 1877 199.029 1877 204L1878 204C1878 198.477 1873.52 194 1868 194L1868 195Z" fill="white"/>
<path d="M1868 180C1881.28 180 1892 190.724 1892 204L1893 204C1893 190.193 1881.81 179 1868 179L1868 180Z" fill="white"/>
<rect width="13" height="1" transform="matrix(-1 0 0 1 1868 179)" fill="white"/>
<rect width="13" height="1" transform="matrix(-1 0 0 1 1868 194)" fill="white"/>
<rect width="1" height="12" transform="matrix(-1 0 0 1 1878 204)" fill="white"/>
<rect width="1" height="12" transform="matrix(-1 0 0 1 1893 204)" fill="white"/>
<rect width="481" height="1" transform="matrix(1 0 0 -1 1363 195)" fill="white"/>
<rect width="481" height="1" transform="matrix(1 0 0 -1 1363 180)" fill="white"/>
</svg>
