<svg width="0" height="0" class="hidden">
	<symbol xmlns="http://www.w3.org/2000/svg" viewBox="0 0 90.7 90.7" id="youtube"><path d="M82.3 46c-1-4.2-4.3-7.2-8.3-7.6-9.5-1-19-1-28.6-1-9.6 0-19.2 0-28.7 1-4 .4-7.3 3.4-8.3 7.5A82 82 0 007.1 64c0 6 0 12.3 1.3 18 1 4.2 4.3 7.2 8.3 7.6 9.5 1 19 1 28.6 1 9.6 0 19.2 0 28.7-1 4-.4 7.3-3.4 8.3-7.5A82 82 0 0083.6 64c0-6 0-12.3-1.3-18zm-53.4 4.4h-5.5v29.4h-5.2V50.4h-5.4v-4.8h16.1v4.8zm14 29.4h-4.7v-2.7c-1.8 2-3.5 3-5.2 3-1.5 0-2.6-.5-3-1.8-.3-.8-.4-2-.4-3.8V54.3h4.6V75c.2.7.5 1 1.1 1 1 0 2-.6 3-2V54.2h4.6v25.5zm17.6-7.6c0 2.3-.2 4-.5 5.1-.6 2-1.9 2.9-3.7 2.9-1.7 0-3.2-1-4.8-2.8v2.4H47V45.6h4.6v11.2c1.5-1.9 3-2.8 4.8-2.8 1.8 0 3 1 3.7 2.9.3 1 .4 2.7.4 5.1v10.2zm17.4-4.3h-9.2v4.5c0 2.4.7 3.6 2.3 3.6 1.2 0 1.8-.6 2-1.9.1-.2.2-1.2.2-3.1h4.7v3.7c-.2 1-.6 2-1.2 2.7a6.4 6.4 0 01-5.6 2.8c-2.4 0-4.2-.9-5.6-2.6-1-1.3-1.5-3.3-1.5-6v-9c0-2.7.5-4.7 1.5-6A6.6 6.6 0 0171 54c2.3 0 4.2.9 5.5 2.6 1 1.3 1.4 3.3 1.4 6V68z"/><path d="M71 58.2c-1.6 0-2.3 1.1-2.3 3.5v2.4h4.6v-2.4c0-2.4-.8-3.5-2.3-3.5z"/><path d="M53.8 58.2c-.7 0-1.5.3-2.3 1v15.6c.8.8 1.5 1.2 2.3 1.2 1.3 0 2-1.2 2-3.5V61.6c0-2.3-.7-3.4-2-3.4z"/><path d="M56.4 35c1.7 0 3.5-1 5.3-3.2v2.8h4.7V8.8h-4.7v19.7c-1 1.5-2 2.2-3 2.2-.5 0-1-.3-1-1V8.7H53v20.4c0 1.8.1 3 .4 3.9.5 1.3 1.5 1.9 3 1.9z"/><path d="M23.9 20.6v14H29v-14L35.3 0H30l-3.5 13.6L22.8 0h-5.4l3.3 9.6c1.6 4.9 2.7 8.5 3.2 11z"/><path d="M42.2 35c2.4 0 4.2-1 5.5-2.7 1-1.3 1.4-3.3 1.4-6v-9c0-2.8-.4-4.8-1.4-6.1a6.4 6.4 0 00-5.5-2.7c-2.3 0-4.1.9-5.4 2.7-1 1.3-1.5 3.3-1.5 6v9c0 2.8.5 4.8 1.5 6.1a6.4 6.4 0 005.4 2.7zM40 16.3c0-2.4.7-3.6 2.2-3.6 1.5 0 2.2 1.2 2.2 3.6V27c0 2.4-.7 3.6-2.2 3.6-1.5 0-2.2-1.2-2.2-3.6V16.3z"/></symbol>

	<symbol xmlns="http://www.w3.org/2000/svg" viewBox="0 0 8 16" id="facebook"><path fill-rule="evenodd" clip-rule="evenodd" d="M5.2 16V8.69h2.35l.36-2.84H5.2V4.04c0-.83.2-1.39 1.34-1.39H8V.11C7.75.06 6.89 0 5.89 0 3.8 0 2.37 1.32 2.37 3.75v2.1H0V8.7h2.37V16H5.2z"/></symbol>

	<symbol xmlns="http://www.w3.org/2000/svg" viewBox="0 0 18 10" id="vk"><path fill-rule="evenodd" clip-rule="evenodd" d="M15.34 6.33l1.11.99c.25.24.68.6 1.08 1.12.64.84.7 1.41-.28 1.49-1.41-.05-3.37.14-3.73-.31C12.07 8.19 11 6.7 10.56 8.59c-.06.33-.07.66-.1.83 0 .3-.03.47-.73.55H9.7c-.29.04-.62.04-.97.01-1.38 0-2.72-.5-3.77-1.4a9.9 9.9 0 01-1.4-1.47c-.7-.86-1.32-1.79-1.86-2.76A62.18 62.18 0 01.1 1.24C.08 1.2.08 1.17.09 1.15-.08.7-.03.45.44.5c2.4-.02 3.17-.4 3.48.6 1.8 4.03 3.42 5.63 3.1.86C6.81.71 6.43.82 6.31.8c-1.09-.01.33-.8.5-.74 1.46 0 3.67-.4 3.73.86 0 1.63-.81 7.25 2.53 1.23l.38-.86c.24-.53.26-.88.82-.8h2.84c.08.04 1.38-.26.57 1.17-1.14 2.4-3.57 3.55-2.35 4.67h.01z"/></symbol>

	<symbol xmlns="http://www.w3.org/2000/svg" viewBox="0 0 16 13" id="twitter"><path fill-rule="evenodd" clip-rule="evenodd" d="M15.56.24a6.6 6.6 0 01-2.09.8 3.27 3.27 0 00-5.58 2.99A9.32 9.32 0 011.11.6a3.27 3.27 0 001.02 4.38 3.28 3.28 0 01-1.49-.41v.04a3.29 3.29 0 002.64 3.22c-.49.13-1 .15-1.49.06a3.29 3.29 0 003.07 2.28A6.59 6.59 0 010 11.53 9.3 9.3 0 005.03 13c6.04 0 9.34-5 9.34-9.34l-.01-.43A6.6 6.6 0 0016 1.53c-.59.27-1.22.45-1.88.53A3.3 3.3 0 0015.55.24h.01z"/></symbol>

	<symbol xmlns="http://www.w3.org/2000/svg" viewBox="0 0 18 18" id="instagram"><path d="M9 0C5.3 0 1.8-.3.5 3.1-.1 4.5 0 6.3 0 9c0 2.3 0 4.4.5 5.8C1.8 18.3 5.3 18 9 18c3.5 0 7.2.4 8.5-3 .6-1.5.5-3.3.5-6 0-3.4.2-5.7-1.5-7.4C14.8-.2 12.5 0 9 0zm-.8 1.6c7.7 0 8.7-.8 8.1 11-.2 4.2-3.4 3.7-7.3 3.7-7.2 0-7.4-.2-7.4-7.3 0-7.3.6-7.4 6.6-7.4zm5.6 1.5a1 1 0 100 2.2 1 1 0 000-2.2zM9 4.4a4.6 4.6 0 100 9.2 4.6 4.6 0 000-9.2zM9 6c4 0 4 6 0 6S5 6 9 6z"/></symbol>
</svg>